<svg width="1920" height="1198" viewBox="0 0 1920 1198" fill="none" xmlns="http://www.w3.org/2000/svg">
<path fill-rule="evenodd" clip-rule="evenodd" d="M363.586 99.4818C147.517 80.1241 46.1222 94.3925 0 108.34V1196.82C102.685 1199.61 281.398 1189.99 538.469 1125.68C846.766 1048.56 1076.61 1078.63 1308.64 1108.98C1402.12 1121.21 1495.96 1133.48 1595.42 1138.81C1793.89 1149.45 1881.43 1143.59 1920 1136.64V7C1820.16 16.9879 1667.73 47.156 1439.42 121.821C1125.61 253.057 891.666 201.896 655.491 150.248C560.34 129.439 464.827 108.552 363.586 99.4818Z" fill="#093132"/>
<path d="M0 0H1920V996H0V0Z" fill="#093132"/>
</svg>
